<?xml version="1.0" standalone="no"?><!DOCTYPE svg PUBLIC "-//W3C//DTD SVG 1.1//EN" "http://www.w3.org/Graphics/SVG/1.1/DTD/svg11.dtd"><svg t="1712571518116" class="icon" viewBox="0 0 1024 1024" version="1.1" xmlns="http://www.w3.org/2000/svg" p-id="7537" xmlns:xlink="http://www.w3.org/1999/xlink" width="200" height="200"><path d="M543.998 110a8 8 0 0 1 8 8l0.003 60.357c153.594 18.22 275.42 140.047 293.64 293.641L903 472a8 8 0 0 1 8 8v64a8 8 0 0 1-8 8l-57.358 0.003C827.42 705.596 705.594 827.423 552 845.643L551.998 905a8 8 0 0 1-8 8h-64a8 8 0 0 1-8-8l-0.003-59.357c-153.593-18.22-275.42-140.047-293.64-293.64L120.997 552a8 8 0 0 1-8-8v-64a8 8 0 0 1 8-8l57.358-0.002c18.22-153.594 140.047-275.42 293.64-293.641l0.003-60.357a8 8 0 0 1 8-8h64zM512 261c-138.057 0-251.002 112.945-251.002 251 0 138.053 112.945 251 251.002 251 138.053 0 250.998-112.947 250.998-251S650.053 261 512 261z m-0.002 123c70.693 0 128 57.308 128 128 0 70.692-57.307 128-128 128-70.692 0-128-57.308-128-128 0-70.692 57.308-128 128-128z" p-id="7538"></path></svg>